<mxfile host="65bd71144e">
    <diagram id="LAPmwr7WQihjiVt8725b" name="Page-1">
        <mxGraphModel dx="1570" dy="563" grid="1" gridSize="10" guides="1" tooltips="1" connect="1" arrows="1" fold="1" page="1" pageScale="1" pageWidth="850" pageHeight="1100" math="0" shadow="0">
            <root>
                <mxCell id="0"/>
                <mxCell id="1" parent="0"/>
                <mxCell id="2" value="EmailNotification" style="swimlane;fontStyle=1;align=center;verticalAlign=top;childLayout=stackLayout;horizontal=1;startSize=26;horizontalStack=0;resizeParent=1;resizeParentMax=0;resizeLast=0;collapsible=1;marginBottom=0;whiteSpace=wrap;html=1;" vertex="1" parent="1">
                    <mxGeometry x="280" y="420" width="240" height="60" as="geometry"/>
                </mxCell>
                <mxCell id="3" value="- sendNotification(String message): void" style="text;strokeColor=none;fillColor=none;align=left;verticalAlign=top;spacingLeft=4;spacingRight=4;overflow=hidden;rotatable=0;points=[[0,0.5],[1,0.5]];portConstraint=eastwest;whiteSpace=wrap;html=1;" vertex="1" parent="2">
                    <mxGeometry y="26" width="240" height="34" as="geometry"/>
                </mxCell>
                <mxCell id="4" value="EmailNotificationCreator" style="swimlane;fontStyle=1;align=center;verticalAlign=top;childLayout=stackLayout;horizontal=1;startSize=26;horizontalStack=0;resizeParent=1;resizeParentMax=0;resizeLast=0;collapsible=1;marginBottom=0;whiteSpace=wrap;html=1;" vertex="1" parent="1">
                    <mxGeometry x="-640" y="420" width="250" height="52" as="geometry"/>
                </mxCell>
                <mxCell id="5" value="- createNotification(): Notification" style="text;strokeColor=none;fillColor=none;align=left;verticalAlign=top;spacingLeft=4;spacingRight=4;overflow=hidden;rotatable=0;points=[[0,0.5],[1,0.5]];portConstraint=eastwest;whiteSpace=wrap;html=1;" vertex="1" parent="4">
                    <mxGeometry y="26" width="250" height="26" as="geometry"/>
                </mxCell>
                <mxCell id="6" value="SMSNotification" style="swimlane;fontStyle=1;align=center;verticalAlign=top;childLayout=stackLayout;horizontal=1;startSize=26;horizontalStack=0;resizeParent=1;resizeParentMax=0;resizeLast=0;collapsible=1;marginBottom=0;whiteSpace=wrap;html=1;" vertex="1" parent="1">
                    <mxGeometry x="550" y="420" width="250" height="60" as="geometry"/>
                </mxCell>
                <mxCell id="7" value="- sendNotification(String message): void" style="text;strokeColor=none;fillColor=none;align=left;verticalAlign=top;spacingLeft=4;spacingRight=4;overflow=hidden;rotatable=0;points=[[0,0.5],[1,0.5]];portConstraint=eastwest;whiteSpace=wrap;html=1;" vertex="1" parent="6">
                    <mxGeometry y="26" width="250" height="34" as="geometry"/>
                </mxCell>
                <mxCell id="10" value="SMSNotificationCreator" style="swimlane;fontStyle=1;align=center;verticalAlign=top;childLayout=stackLayout;horizontal=1;startSize=26;horizontalStack=0;resizeParent=1;resizeParentMax=0;resizeLast=0;collapsible=1;marginBottom=0;whiteSpace=wrap;html=1;" vertex="1" parent="1">
                    <mxGeometry x="-360" y="420" width="280" height="60" as="geometry"/>
                </mxCell>
                <mxCell id="11" value="- createNotification(): Notification" style="text;strokeColor=none;fillColor=none;align=left;verticalAlign=top;spacingLeft=4;spacingRight=4;overflow=hidden;rotatable=0;points=[[0,0.5],[1,0.5]];portConstraint=eastwest;whiteSpace=wrap;html=1;" vertex="1" parent="10">
                    <mxGeometry y="26" width="280" height="34" as="geometry"/>
                </mxCell>
                <mxCell id="12" value="WhatsAppNotification" style="swimlane;fontStyle=1;align=center;verticalAlign=top;childLayout=stackLayout;horizontal=1;startSize=26;horizontalStack=0;resizeParent=1;resizeParentMax=0;resizeLast=0;collapsible=1;marginBottom=0;whiteSpace=wrap;html=1;" vertex="1" parent="1">
                    <mxGeometry x="830" y="420" width="250" height="60" as="geometry"/>
                </mxCell>
                <mxCell id="13" value="- sendNotification(String message): void" style="text;strokeColor=none;fillColor=none;align=left;verticalAlign=top;spacingLeft=4;spacingRight=4;overflow=hidden;rotatable=0;points=[[0,0.5],[1,0.5]];portConstraint=eastwest;whiteSpace=wrap;html=1;" vertex="1" parent="12">
                    <mxGeometry y="26" width="250" height="34" as="geometry"/>
                </mxCell>
                <mxCell id="14" value="WhatsAppNotificationCreator" style="swimlane;fontStyle=1;align=center;verticalAlign=top;childLayout=stackLayout;horizontal=1;startSize=26;horizontalStack=0;resizeParent=1;resizeParentMax=0;resizeLast=0;collapsible=1;marginBottom=0;whiteSpace=wrap;html=1;" vertex="1" parent="1">
                    <mxGeometry x="-60" y="420" width="260" height="60" as="geometry"/>
                </mxCell>
                <mxCell id="15" value="- createNotification(): Notification" style="text;strokeColor=none;fillColor=none;align=left;verticalAlign=top;spacingLeft=4;spacingRight=4;overflow=hidden;rotatable=0;points=[[0,0.5],[1,0.5]];portConstraint=eastwest;whiteSpace=wrap;html=1;" vertex="1" parent="14">
                    <mxGeometry y="26" width="260" height="34" as="geometry"/>
                </mxCell>
                <mxCell id="16" value="Application" style="swimlane;fontStyle=1;align=center;verticalAlign=top;childLayout=stackLayout;horizontal=1;startSize=26;horizontalStack=0;resizeParent=1;resizeParentMax=0;resizeLast=0;collapsible=1;marginBottom=0;whiteSpace=wrap;html=1;" vertex="1" parent="1">
                    <mxGeometry x="-670" y="232" width="160" height="48" as="geometry"/>
                </mxCell>
                <mxCell id="18" value="&amp;lt;&amp;lt;interface&amp;gt;&amp;gt;&lt;div&gt;Notification&lt;/div&gt;" style="swimlane;fontStyle=1;align=center;verticalAlign=top;childLayout=stackLayout;horizontal=1;startSize=26;horizontalStack=0;resizeParent=1;resizeParentMax=0;resizeLast=0;collapsible=1;marginBottom=0;whiteSpace=wrap;html=1;" vertex="1" parent="1">
                    <mxGeometry x="560" y="220" width="240" height="60" as="geometry"/>
                </mxCell>
                <mxCell id="19" value="- sendNotification(String message): void" style="text;strokeColor=none;fillColor=none;align=left;verticalAlign=top;spacingLeft=4;spacingRight=4;overflow=hidden;rotatable=0;points=[[0,0.5],[1,0.5]];portConstraint=eastwest;whiteSpace=wrap;html=1;" vertex="1" parent="18">
                    <mxGeometry y="26" width="240" height="34" as="geometry"/>
                </mxCell>
                <mxCell id="20" value="&amp;lt;&amp;lt;abstract class&amp;gt;&amp;gt;&lt;div&gt;NotificationCreatorFactory&lt;/div&gt;" style="swimlane;fontStyle=1;align=center;verticalAlign=top;childLayout=stackLayout;horizontal=1;startSize=26;horizontalStack=0;resizeParent=1;resizeParentMax=0;resizeLast=0;collapsible=1;marginBottom=0;whiteSpace=wrap;html=1;" vertex="1" parent="1">
                    <mxGeometry x="-340" y="230" width="270" height="50" as="geometry"/>
                </mxCell>
                <mxCell id="21" value="- send(String message): void" style="text;strokeColor=none;fillColor=none;align=left;verticalAlign=top;spacingLeft=4;spacingRight=4;overflow=hidden;rotatable=0;points=[[0,0.5],[1,0.5]];portConstraint=eastwest;whiteSpace=wrap;html=1;" vertex="1" parent="20">
                    <mxGeometry y="26" width="270" height="24" as="geometry"/>
                </mxCell>
                <mxCell id="23" value="" style="html=1;labelBackgroundColor=#ffffff;jettySize=auto;orthogonalLoop=1;fontSize=14;rounded=0;jumpStyle=gap;edgeStyle=orthogonalEdgeStyle;startArrow=none;endArrow=block;endFill=0;dashed=1;strokeWidth=1;exitX=0.558;exitY=0.013;exitDx=0;exitDy=0;exitPerimeter=0;" edge="1" parent="1" source="6">
                    <mxGeometry width="48" height="48" relative="1" as="geometry">
                        <mxPoint x="360" y="380" as="sourcePoint"/>
                        <mxPoint x="688" y="280" as="targetPoint"/>
                    </mxGeometry>
                </mxCell>
                <mxCell id="24" value="" style="html=1;labelBackgroundColor=#ffffff;jettySize=auto;orthogonalLoop=1;fontSize=14;rounded=0;jumpStyle=gap;edgeStyle=orthogonalEdgeStyle;startArrow=none;endArrow=block;endFill=0;dashed=1;strokeWidth=1;exitX=0.549;exitY=-0.027;exitDx=0;exitDy=0;exitPerimeter=0;" edge="1" parent="1" source="2">
                    <mxGeometry width="48" height="48" relative="1" as="geometry">
                        <mxPoint x="410" y="401" as="sourcePoint"/>
                        <mxPoint x="690" y="320" as="targetPoint"/>
                        <Array as="points">
                            <mxPoint x="412" y="320"/>
                        </Array>
                    </mxGeometry>
                </mxCell>
                <mxCell id="25" value="" style="html=1;labelBackgroundColor=#ffffff;jettySize=auto;orthogonalLoop=1;fontSize=14;rounded=0;jumpStyle=gap;edgeStyle=orthogonalEdgeStyle;startArrow=none;endArrow=block;endFill=0;dashed=1;strokeWidth=1;exitX=0.549;exitY=-0.027;exitDx=0;exitDy=0;exitPerimeter=0;" edge="1" parent="1">
                    <mxGeometry width="48" height="48" relative="1" as="geometry">
                        <mxPoint x="960" y="420" as="sourcePoint"/>
                        <mxPoint x="690" y="320" as="targetPoint"/>
                        <Array as="points">
                            <mxPoint x="960" y="322"/>
                            <mxPoint x="700" y="322"/>
                            <mxPoint x="700" y="320"/>
                        </Array>
                    </mxGeometry>
                </mxCell>
                <mxCell id="26" value="" style="endArrow=classic;html=1;entryX=0.438;entryY=1.067;entryDx=0;entryDy=0;entryPerimeter=0;exitX=0.5;exitY=0;exitDx=0;exitDy=0;" edge="1" parent="1" source="10" target="21">
                    <mxGeometry width="50" height="50" relative="1" as="geometry">
                        <mxPoint x="-230" y="420" as="sourcePoint"/>
                        <mxPoint x="-180" y="370" as="targetPoint"/>
                    </mxGeometry>
                </mxCell>
                <mxCell id="27" value="" style="endArrow=classic;html=1;exitX=0.473;exitY=-0.062;exitDx=0;exitDy=0;exitPerimeter=0;" edge="1" parent="1" source="4">
                    <mxGeometry width="50" height="50" relative="1" as="geometry">
                        <mxPoint x="-520" y="410" as="sourcePoint"/>
                        <mxPoint x="-220" y="330" as="targetPoint"/>
                        <Array as="points">
                            <mxPoint x="-520" y="330"/>
                        </Array>
                    </mxGeometry>
                </mxCell>
                <mxCell id="28" value="" style="endArrow=classic;html=1;exitX=0.5;exitY=0;exitDx=0;exitDy=0;" edge="1" parent="1">
                    <mxGeometry width="50" height="50" relative="1" as="geometry">
                        <mxPoint x="71" y="420" as="sourcePoint"/>
                        <mxPoint x="-220" y="330" as="targetPoint"/>
                        <Array as="points">
                            <mxPoint x="70" y="330"/>
                        </Array>
                    </mxGeometry>
                </mxCell>
                <mxCell id="29" value="" style="html=1;labelBackgroundColor=#ffffff;jettySize=auto;orthogonalLoop=1;fontSize=14;rounded=0;jumpStyle=gap;edgeStyle=orthogonalEdgeStyle;startArrow=none;endArrow=open;dashed=1;strokeWidth=1;exitX=1;exitY=0.5;exitDx=0;exitDy=0;entryX=0;entryY=0.265;entryDx=0;entryDy=0;entryPerimeter=0;" edge="1" parent="1" source="20" target="19">
                    <mxGeometry width="48" height="48" relative="1" as="geometry">
                        <mxPoint x="270" y="247.5" as="sourcePoint"/>
                        <mxPoint x="318" y="199.5" as="targetPoint"/>
                    </mxGeometry>
                </mxCell>
                <mxCell id="30" value="" style="html=1;labelBackgroundColor=#ffffff;jettySize=auto;orthogonalLoop=1;fontSize=14;rounded=0;jumpStyle=gap;edgeStyle=orthogonalEdgeStyle;startArrow=none;endArrow=open;strokeWidth=1;entryX=0.005;entryY=0.133;entryDx=0;entryDy=0;entryPerimeter=0;" edge="1" parent="1" target="21">
                    <mxGeometry width="48" height="48" relative="1" as="geometry">
                        <mxPoint x="-510" y="258" as="sourcePoint"/>
                        <mxPoint x="-462" y="210" as="targetPoint"/>
                    </mxGeometry>
                </mxCell>
            </root>
        </mxGraphModel>
    </diagram>
</mxfile>